<?xml version="1.0" encoding="iso-8859-1"?>
<!-- Generator: Adobe Illustrator 18.0.0, SVG Export Plug-In . SVG Version: 6.00 Build 0)  -->
<!DOCTYPE svg PUBLIC "-//W3C//DTD SVG 1.1//EN" "http://www.w3.org/Graphics/SVG/1.1/DTD/svg11.dtd">
<svg version="1.1" id="Capa_1" xmlns="http://www.w3.org/2000/svg" xmlns:xlink="http://www.w3.org/1999/xlink" x="0px" y="0px"
	 viewBox="0 0 486.988 486.988" style="enable-background:new 0 0 486.988 486.988;" xml:space="preserve">
<g>
	<path d="M387.515,107.139c-22.455-22.311-49.167-38.775-78.271-48.653v-32.37c0-14.4-11.715-26.115-26.115-26.115H203.86
		c-14.4,0-26.115,11.715-26.115,26.115v32.396C97.436,85.809,39.524,161.668,39.524,250.743v171.224
		c0,35.853,29.169,65.022,65.021,65.022h277.897c35.853,0,65.021-29.169,65.021-65.022V250.742
		C447.464,196.548,426.174,145.549,387.515,107.139z M194.744,26.115c0-5.026,4.089-9.115,9.115-9.115h79.269
		c5.026,0,9.115,4.089,9.115,9.115v27.414c-15.775-3.854-32.114-5.846-48.749-5.846c-16.798,0-33.122,2.047-48.75,5.877V26.115z
		 M430.464,421.967c0,26.479-21.542,48.022-48.021,48.022H104.546c-26.479,0-48.021-21.542-48.021-48.022V250.743
		c0-102.594,83.874-186.06,186.97-186.06c49.765,0,96.657,19.359,132.039,54.514c35.423,35.196,54.931,81.912,54.931,131.545
		V421.967z"/>
	<path d="M243.494,187.363c-63.628,0-115.393,51.765-115.393,115.393s51.765,115.394,115.393,115.394
		c63.627,0,115.393-51.766,115.393-115.394S307.122,187.363,243.494,187.363z M243.494,401.149
		c-38.658,0-72.174-22.413-88.253-54.924c62.483-30.743,149.865-2.745,173.384,5.817
		C311.574,381.38,279.801,401.149,243.494,401.149z M335.895,336.582c-10.172-3.808-33.99-11.966-63.646-17.086
		c-48.448-8.362-90.814-4.599-123.207,10.843c-2.561-8.756-3.941-18.011-3.941-27.583c0-54.254,44.139-98.393,98.393-98.393
		s98.393,44.139,98.393,98.393C341.887,314.636,339.77,326.029,335.895,336.582z"/>
</g>
<g>
</g>
<g>
</g>
<g>
</g>
<g>
</g>
<g>
</g>
<g>
</g>
<g>
</g>
<g>
</g>
<g>
</g>
<g>
</g>
<g>
</g>
<g>
</g>
<g>
</g>
<g>
</g>
<g>
</g>
</svg>
